<svg id="Capa_1" data-name="Capa 1" xmlns="http://www.w3.org/2000/svg" xmlns:xlink="http://www.w3.org/1999/xlink" viewBox="0 0 25 25"><defs><style>.cls-1{fill:#f9d500;}.cls-2{fill:url(#Degradado_sin_nombre);}.cls-3{fill:url(#Degradado_sin_nombre-2);}</style><linearGradient id="Degradado_sin_nombre" x1="20.2" y1="0.8" x2="6.39" y2="20.55" gradientTransform="matrix(1, 0, 0, -1, 0, 25.28)" gradientUnits="userSpaceOnUse"><stop offset="0" stop-color="#fff"/><stop offset="0.04" stop-color="#fffdf5"/><stop offset="1" stop-color="#f9d500"/></linearGradient><linearGradient id="Degradado_sin_nombre-2" x1="20.15" y1="0.87" x2="6.39" y2="20.55" xlink:href="#Degradado_sin_nombre"/></defs><title>Fav</title><path class="cls-1" d="M23.6,11.29a1.72,1.72,0,0,0,.6-1.8c-.2-.8-.8-1-1.5-1.1l-2-.3c-5,6.3-12.2,10.2-15.6,11.8-.1.9-.3,1.8-.4,2.6-.1,1.4,1,2.1,2.1,1.5,1.7-.9,3.3-1.8,5-2.7a1.2,1.2,0,0,1,1.4,0L18,24c.6.3,1.1.5,1.7.1a1.57,1.57,0,0,0,.6-1.7c-.3-2-.6-4-1-5.9a1,1,0,0,1,.3-1C21,14,22.3,12.69,23.6,11.29Z"/><path class="cls-2" d="M20.7,8.19l-3.6-.6a.94.94,0,0,1-.7-.5c-.9-1.8-1.7-3.6-2.6-5.4a1.5,1.5,0,0,0-1.4-1,1.3,1.3,0,0,0-1.3,1c-.8,1.8-1.7,3.6-2.5,5.4-.2.4-.4.6-.8.6-1.9.3-3.8.6-5.7.8A1.48,1.48,0,0,0,.8,9.59a1.77,1.77,0,0,0,.5,1.7c1.2,1.2,2.3,2.5,3.6,3.6a2.09,2.09,0,0,1,.7,2.3c-.2.9-.3,1.8-.5,2.7C8.5,18.29,15.7,14.39,20.7,8.19Z"/><path d="M19,25a2.83,2.83,0,0,1-1.3-.4c-.6-.3-1.2-.7-1.8-1-1-.6-2-1.1-3-1.7a.48.48,0,0,0-.7,0c-1.6.9-3.3,1.8-5,2.8a2.17,2.17,0,0,1-2.2,0,2.35,2.35,0,0,1-1-2.2v-.1a10.9,10.9,0,0,1,.2-1.5c.2-1.3.4-2.6.7-3.8a1.39,1.39,0,0,0-.5-1.7c-.9-.8-1.7-1.7-2.5-2.5a12,12,0,0,1-1.1-1.2,2.27,2.27,0,0,1-.7-2.4A2.3,2.3,0,0,1,2,7.85l.5-.1c1.7-.3,3.4-.5,5.2-.8.2,0,.2,0,.3-.2.5-1.2,1.1-2.3,1.6-3.5l.9-1.8a2,2,0,0,1,2-1.4h0a2.17,2.17,0,0,1,2,1.5c.9,1.9,1.7,3.7,2.6,5.4a.35.35,0,0,0,.2.1c1.7.3,3.5.5,5.2.8l.46.09A2.06,2.06,0,0,1,24.9,9.45a2.55,2.55,0,0,1-.8,2.5l-1.6,1.6L20.1,16c-.1.1-.1.1-.1.3l.6,3.6c.1.8.3,1.6.4,2.4a2.38,2.38,0,0,1-.9,2.4A2.61,2.61,0,0,1,19,25Zm-6.5-4.6a1.93,1.93,0,0,1,1,.3c1,.6,2,1.1,3,1.7.6.3,1.2.7,1.8,1s.7.2.9.1a.94.94,0,0,0,.3-1c-.1-.8-.3-1.6-.4-2.4-.2-1.2-.4-2.4-.6-3.5A1.67,1.67,0,0,1,19,15l2.4-2.4L23,11c.5-.5.5-.7.4-1s-.3-.5-.9-.6h-.3c-1.8-.3-3.5-.5-5.3-.8a1.86,1.86,0,0,1-1.2-.9c-.9-1.8-1.7-3.5-2.6-5.4-.3-.6-.5-.6-.8-.6h0c-.2,0-.4,0-.7.6s-.6,1.2-.9,1.9c-.6,1.2-1.1,2.3-1.6,3.5a1.55,1.55,0,0,1-1.2.7c-1.8.3-3.5.5-5.2.8l-.5.1c-.5,0-.7.2-.7.5s-.1.5.3,1L3,12c.8.8,1.6,1.7,2.4,2.4a2.89,2.89,0,0,1,.9,3,25,25,0,0,0-.6,3.8c-.1.5-.1,1-.2,1.4a1.22,1.22,0,0,0,.3.9.85.85,0,0,0,.7,0c1.7-.9,3.4-1.8,5-2.7A1.43,1.43,0,0,1,12.5,20.35Z"/><path class="cls-1" d="M23.6,11.29a1.72,1.72,0,0,0,.6-1.8c-.2-.8-.85-.92-1.55-1L20.7,8.19c-5,6.3-12.2,10.1-15.6,11.7-.15.93-.3,1.8-.4,2.6-.1,1.4,1,2.1,2.1,1.5,1.7-.9,3.3-1.8,5-2.7a1.2,1.2,0,0,1,1.4,0L18,24c.6.3,1.1.5,1.7.1a1.57,1.57,0,0,0,.6-1.7c-.3-2-.6-4-1-5.9a1,1,0,0,1,.3-1C21,14,22.3,12.69,23.6,11.29Z"/><path class="cls-3" d="M20.7,8.19l-3.6-.6a.94.94,0,0,1-.7-.5c-.9-1.8-1.7-3.6-2.6-5.4a1.5,1.5,0,0,0-1.4-1,1.3,1.3,0,0,0-1.3,1c-.8,1.8-1.7,3.6-2.5,5.4-.2.4-.4.6-.8.6-1.9.3-3.8.6-5.7.8A1.48,1.48,0,0,0,.8,9.59a1.77,1.77,0,0,0,.5,1.7c1.2,1.2,2.3,2.5,3.6,3.6a2.09,2.09,0,0,1,.7,2.3c-.2.9-.3,1.8-.5,2.7C8,18.71,17.55,12.91,20.7,8.19Z"/></svg>