<svg id="Capa_1" data-name="Capa 1" xmlns="http://www.w3.org/2000/svg" viewBox="0 0 789.93 175.67"><defs><style>.cls-1{fill:#257be5;}</style></defs><title>Logo</title><path class="cls-1" d="M0,175.8c.89-7.15,1.59-13.87,2.59-20.55,3.55-23.82,7.11-47.63,10.83-71.42C16.75,62.5,20.28,41.2,23.73,19.89c.83-5.08,1.88-10.13,2.45-15.23.34-3,1.45-4.54,4.61-4.53q15.49.09,31,0c3.08,0,4.33,1.38,4.83,4.39,4.52,27.52,9.24,55,13.77,82.53q6.06,36.86,11.74,73.77c.18,1.18-1.23,3.63-2.17,3.78-6.23,1-12.54,1.49-18.81,2.28-3.39.42-4.66-.9-5.09-4.29-1-7.74-2.53-15.4-3.61-23.13-.39-2.81-1.67-3.73-4.3-3.45-8.59.91-17.18,1.91-25.79,2.62-3.3.27-4.52,1.67-4.91,4.9-1,8.58-2.57,17.09-3.61,25.66-.33,2.72-1.45,3.69-4,4C13.42,173.92,7.05,174.86,0,175.8ZM45.9,30.08,44,30c-4.19,28.29-8.37,56.58-12.71,85.88,8.23-.58,15.31-1.18,22.39-1.54,4-.2,4.84-1.91,4.22-5.77-3-18.86-5.77-37.77-8.62-56.66C48.16,44.63,47,37.35,45.9,30.08Z"/><path class="cls-1" d="M349.91,74.87c1.43.9,2.65,1.74,3.93,2.45,8.62,4.76,12,12.66,12.67,21.88.53,7.3.27,14.64.49,22,.26,8.76.64,17.52,1,27.63-7,0-14.61.15-22.19-.16-1.2,0-3.07-2-3.34-3.39a67.08,67.08,0,0,1-1.23-11.84c-.19-9.66-.08-19.32-.16-29C341,88.52,331,85.08,315.92,86.7c-.94.1-2.26,2.93-2.28,4.51-.17,16.82-.1,33.64-.11,50.46,0,7.71,0,7.76-7.55,8.05-4.66.18-9.34-.05-14,.29-3.86.29-4.85-1.29-4.81-4.89.14-15,.06-30,.06-45,0-31.31.09-62.62-.11-93.93,0-4.89,1.56-6.28,6.29-6.18,12.32.28,24.65-.08,37,.19a61.66,61.66,0,0,1,15.27,2c13.67,3.83,20.67,13.22,20.87,27.5.1,7.47.06,15-.56,22.42-.78,9.26-5.59,16.18-13.89,20.56a6.91,6.91,0,0,0-1.25.82A8.47,8.47,0,0,0,349.91,74.87Zm-9.12-32.26h.29c0-2.16,0-4.33,0-6.49-.23-12-4.48-16.25-16.35-16.31-2.34,0-4.68.16-7,0-3.34-.27-4.29,1.22-4.24,4.39.14,10,.05,20,.05,30,0,13.79.71,14.36,14.75,11.64,8-1.56,11.3-4.66,12.42-12.72C341.19,49.65,340.79,46.11,340.79,42.61Z"/><path class="cls-1" d="M696.21.26c8.59,0,16.38-.19,24.14.18,1.26.07,3,2.41,3.5,4,5.72,17,11.24,34.11,16.85,51.16a10.39,10.39,0,0,0,3.23,5c2.43-7.1,4.9-14.17,7.28-21.28Q757,22.07,762.62,4.77c1-3.24,2.82-4.88,6.53-4.71C775.08.35,781,.14,788,.14c-3,9-5.61,17-8.32,25-6,17.62-12.19,35.19-18,52.89a15.09,15.09,0,0,0,.28,8.59c8.47,27.14,17.16,54.21,25.77,81.3.73,2.31,1.29,4.67,2.14,7.79-8.71-1.09-16.61-1.87-24.39-3.24-1.48-.26-3.17-2.68-3.72-4.43-6.31-20.32-12.41-40.71-18.59-61.08-.61-2-1.37-4-2.62-7.53-1.34,3.11-2.21,4.75-2.79,6.49C731.49,125,725.14,144.06,719,163.2c-.91,2.8-2,3.55-5,3.07-6.35-1-12.79-1.54-20.07-2.36,1.4-4.36,2.44-7.94,3.69-11.45,8.07-22.73,16.31-45.39,24.15-68.19a16.52,16.52,0,0,0-.06-10c-7.84-23-16-45.82-24.11-68.71C697.09,4.23,696.84,2.78,696.21.26Z"/><path class="cls-1" d="M188.32,62.53c0-19,.11-38-.08-57,0-4.17,1.32-5.67,5.43-5.46a129.24,129.24,0,0,0,15,0c4.66-.3,6,1.47,5.93,6-.16,35-.09,70-.09,105,0,2.83,0,5.67.07,8.5.21,8.67,4.2,13.28,11.89,13.78,9,.59,15.32-4,16.56-12.26a54.41,54.41,0,0,0,.33-8c0-35.66.09-71.32-.08-107,0-4.51,1.13-6.41,5.84-6.06a90.7,90.7,0,0,0,13,0c4.41-.3,5.72,1.38,5.7,5.75-.16,28.82-.08,57.65-.08,86.48,0,7.66,0,15.33,0,23-.22,24.14-14.86,39.46-39,40.37a61.55,61.55,0,0,1-16.82-1.43c-12.88-3.14-21.63-13.22-22.52-26.8-1-14.93-.78-29.94-1-44.91C188.23,75.86,188.32,69.19,188.32,62.53Z"/><path class="cls-1" d="M458.28,149.11c-12.2-.39-12.21-.39-14.47-12.49-.78-4.24-1.2-8.58-2.39-12.7-.45-1.53-2.6-3.56-4.05-3.63-8.81-.41-17.65-.48-26.47-.22-1.46.05-3.79,2.08-4.13,3.55-1.4,6.14-2.37,12.4-3.16,18.66-.52,4.11-2,6.3-6.61,5.92a108.25,108.25,0,0,0-13.48,0c-3.73.15-4.66-1.55-4-4.9q5.19-27.91,10.3-55.85,7.32-39.94,14.58-79.89c1.27-7,1.55-7.37,8.54-7.38,9,0,18,.12,27-.06,3.5-.07,5.1,1.26,5.72,4.67,3.25,18,6.67,35.9,10,53.86q4.65,25.23,9.21,50.49c2.19,12.08,4.31,24.18,6.54,36.26.49,2.64-.46,3.77-3.07,3.75C464.94,149.09,461.61,149.11,458.28,149.11ZM424.6,24.74c-1.22,1.7-1.66,2-1.73,2.44-4,23.23-7.88,46.48-11.9,69.71-.56,3.28,1.19,3.67,3.66,3.67,6.16,0,12.32,0,18.48.11,3.33.07,4.32-1.08,3.7-4.52-2.43-13.57-4.57-27.19-6.87-40.78C428.29,45.6,426.54,35.84,424.6,24.74Z"/><path class="cls-1" d="M485.38,75.19c0-23.16.11-46.32-.09-69.47,0-4.47,1.45-5.7,5.74-5.66q29.48.26,59,0c4.25,0,5.83,1.17,5.8,5.65-.08,14.24.09,14.25-14,14.23-8.33,0-16.66.14-25-.12-4.21-.13-5.46,1.46-5.39,5.52.21,11.66.31,23.33,0,35-.14,4.85,1.84,6.05,6.12,6,7.83-.09,15.66.26,23.49.14,3.56,0,5.28,1,5.06,4.81s-.15,7.34,0,11c.14,3.38-1.11,4.82-4.66,4.64-8.15-.42-16.31-.46-24.46-.87-4.07-.21-5.55,1.24-5.5,5.44.18,18-.05,36,.16,54,.06,4.58-1.46,5.8-5.84,5.23a77.58,77.58,0,0,0-14.44-.7c-5,.28-6.07-1.67-6-6.33C485.5,120.83,485.38,98,485.38,75.19Z"/><path class="cls-1" d="M106.39,81.74c0-25.15.11-50.29-.1-75.43,0-4.8,1.37-6.6,6.21-6.25A107.64,107.64,0,0,0,127,.07c4.39-.27,5.68,1.35,5.66,5.72-.15,35.8-.08,71.61-.08,107.41,0,6.49.16,13-.06,19.48-.13,3.69,1.11,5.16,4.87,4.79,10.25-1,20.53-1.74,30.79-2.77,8.26-.83,8.53-.71,8.54,7.38v1c0,14,0,13.79-14.29,14.82-16.91,1.22-33.8,2.68-50.65,4.51-4.43.48-5.47-.49-5.44-4.74C106.46,132.36,106.39,107.05,106.39,81.74Z"/><path class="cls-1" d="M570,76.74c0-23.49.11-47-.09-70.46,0-4.86,1.59-6.56,6.34-6.21a84,84,0,0,0,13,0c5-.41,6.57,1.25,6.54,6.41-.21,39-.11,78-.11,116.94,0,9.22,0,9.41,9.23,10.33,10.26,1,20.54,1.74,30.82,2.41,3.21.21,4.36,1.6,4.26,4.71-.15,4.66-.12,9.32,0,14,.06,3-1.18,4.15-4.22,3.9-19.88-1.62-39.77-3.32-59.68-4.61-4.69-.3-6.21-1.66-6.16-6.44C570.11,124.05,570,100.39,570,76.74Z"/><path class="cls-1" d="M678.85,81.3q0,37.2,0,74.41c0,6.38,0,6.45-6.39,6.12-5-.25-9.94-.79-14.92-1.06-3.79-.19-4.5-2.39-4.48-5.69.09-14.81,0-29.63,0-44.44q0-51.93,0-103.87c0-6.6,0-6.61,6.69-6.63,4.66,0,9.33.21,14-.06s5.14,2.07,5.13,5.82C678.8,31,678.85,56.17,678.85,81.3Z"/></svg>